<?xml version="1.0" encoding="UTF-8" standalone="no"?>
<svg
   id="Слой_1"
   data-name="Слой 1"
   viewBox="0 0 1916.04 1159.08"
   version="1.1"
   sodipodi:docname="line.svg"
   inkscape:version="1.2.2 (732a01da63, 2022-12-09)"
   xmlns:inkscape="http://www.inkscape.org/namespaces/inkscape"
   xmlns:sodipodi="http://sodipodi.sourceforge.net/DTD/sodipodi-0.dtd"
   xmlns="http://www.w3.org/2000/svg"
   xmlns:svg="http://www.w3.org/2000/svg">
  <sodipodi:namedview
     id="namedview443"
     pagecolor="#ffffff"
     bordercolor="#000000"
     borderopacity="0.25"
     inkscape:showpageshadow="2"
     inkscape:pageopacity="0.0"
     inkscape:pagecheckerboard="0"
     inkscape:deskcolor="#d1d1d1"
     showgrid="false"
     inkscape:zoom="1.4045623"
     inkscape:cx="1071.5082"
     inkscape:cy="474.88104"
     inkscape:window-width="1920"
     inkscape:window-height="1001"
     inkscape:window-x="-9"
     inkscape:window-y="-9"
     inkscape:window-maximized="1"
     inkscape:current-layer="Слой_1" />
  <defs
     id="defs4">
    <style
       id="style2">.cls-1{fill:#e6e6e6;}.cls-2{fill:#fff;}.cls-3,.cls-7,.cls-9{font-size:31.56px;}.cls-10,.cls-13,.cls-16,.cls-21,.cls-25,.cls-28,.cls-3,.cls-36,.cls-39,.cls-42,.cls-47,.cls-7,.cls-9{font-family:MyriadPro-Regular, Myriad Pro;}.cls-3{letter-spacing:0em;}.cls-4,.cls-9{letter-spacing:0.02em;}.cls-5{letter-spacing:0.02em;}.cls-6{letter-spacing:0.02em;}.cls-7{letter-spacing:0.03em;}.cls-8{letter-spacing:0.02em;}.cls-10{font-size:37.56px;letter-spacing:0.02em;}.cls-11{letter-spacing:0.05em;}.cls-12{letter-spacing:0.02em;}.cls-13,.cls-16,.cls-21,.cls-25,.cls-39{font-size:35.58px;}.cls-13{letter-spacing:0.01em;}.cls-14,.cls-39{letter-spacing:0.02em;}.cls-15{letter-spacing:0.02em;}.cls-16,.cls-20{letter-spacing:0.02em;}.cls-17,.cls-21{letter-spacing:0.02em;}.cls-18{letter-spacing:0em;}.cls-19{letter-spacing:0.01em;}.cls-22{letter-spacing:0.01em;}.cls-23{letter-spacing:0.01em;}.cls-24{letter-spacing:0.01em;}.cls-25{letter-spacing:-0.01em;}.cls-26{letter-spacing:0.01em;}.cls-27{letter-spacing:0.01em;}.cls-28,.cls-36{font-size:32.68px;}.cls-29{letter-spacing:0.02em;}.cls-30{letter-spacing:0em;}.cls-31{letter-spacing:0.02em;}.cls-32{letter-spacing:0.01em;}.cls-33{letter-spacing:0.02em;}.cls-34{letter-spacing:0.01em;}.cls-35{letter-spacing:0.01em;}.cls-36{letter-spacing:0.03em;}.cls-37{letter-spacing:0.01em;}.cls-38{letter-spacing:0.01em;}.cls-40{letter-spacing:0.02em;}.cls-41{letter-spacing:0em;}.cls-42,.cls-47{font-size:29.53px;}.cls-43,.cls-47{letter-spacing:0.02em;}.cls-44{letter-spacing:0.02em;}.cls-45{letter-spacing:0.01em;}.cls-46{letter-spacing:0em;}.cls-48,.cls-49,.cls-51,.cls-52,.cls-53,.cls-54,.cls-55,.cls-56,.cls-57{fill:none;stroke-linecap:round;stroke-miterlimit:10;}.cls-48,.cls-49,.cls-52,.cls-53,.cls-54,.cls-55,.cls-56,.cls-57{stroke:#000;stroke-width:5px;}.cls-49{stroke-dasharray:12.54 12.54;}.cls-50{fill:#b3b3b3;}.cls-51{stroke:#fff;stroke-width:6px;}.cls-52{stroke-dasharray:11.95 11.95;}.cls-53{stroke-dasharray:12.45 12.45;}.cls-54{stroke-dasharray:11.6 11.6;}.cls-55{stroke-dasharray:11.97 11.97;}.cls-56{stroke-dasharray:12.39 12.39;}.cls-57{stroke-dasharray:12;}</style>
  </defs>
  <rect
     class="cls-1"
     x="-3.96"
     width="1920"
     height="1159.08"
     id="rect6" />
  <rect
     class="cls-2"
     x="372.7"
     y="101.5"
     width="176.95"
     height="64.3"
     rx="9"
     id="rect8" />
  <text
     class="cls-3"
     transform="translate(422.7 142.91) scale(1.13 1)"
     id="text16">F<tspan
   class="cls-4"
   x="15.46"
   y="0"
   id="tspan10">lo</tspan><tspan
   class="cls-5"
   x="41.5"
   y="0"
   id="tspan12">a</tspan><tspan
   class="cls-6"
   x="57.21"
   y="0"
   id="tspan14">t</tspan></text>
  <rect
     class="cls-2"
     x="372.84"
     y="185.22"
     width="142.35"
     height="64.3"
     rx="9"
     id="rect18" />
  <text
     class="cls-7"
     transform="translate(422.84 226.63) scale(1.13 1)"
     id="text24">I<tspan
   class="cls-8"
   x="8.49"
   y="0"
   id="tspan20">n</tspan><tspan
   class="cls-6"
   x="26.51"
   y="0"
   id="tspan22">t</tspan></text>
  <rect
     class="cls-2"
     x="828.7"
     y="420.09"
     width="144.31"
     height="64.3"
     rx="9"
     id="rect26" />
  <text
     class="cls-9"
     transform="translate(858.69 461.5) scale(1.13 1)"
     id="text28">Виды</text>
  <rect
     class="cls-2"
     x="812.48"
     y="512.88"
     width="161.45"
     height="70.83"
     rx="9"
     id="rect30" />
  <text
     class="cls-10"
     transform="translate(842.48 559.32) scale(0.91 1)"
     id="text36">Ци<tspan
   class="cls-11"
   x="46.8"
   y="0"
   id="tspan32">к</tspan><tspan
   class="cls-12"
   x="66.56"
   y="0"
   id="tspan34">лы</tspan></text>
  <rect
     class="cls-2"
     x="370.2"
     y="272.57"
     width="197.19"
     height="68.68"
     rx="9"
     id="rect38" />
  <text
     class="cls-13"
     transform="translate(400.2 317.35)"
     id="text46">C<tspan
   class="cls-14"
   x="20.96"
   y="0"
   id="tspan40">ompl</tspan><tspan
   class="cls-15"
   x="101.65"
   y="0"
   id="tspan42">e</tspan><tspan
   class="cls-14"
   x="120.08"
   y="0"
   id="tspan44">x</tspan></text>
  <rect
     class="cls-2"
     x="372.26001"
     y="368.68344"
     width="252.23"
     height="111.37"
     rx="9"
     id="rect48" />
  <text
     class="cls-16"
     transform="translate(402.26 412.96)"
     id="text62">Операции и<tspan
   class="cls-14"
   id="tspan60"><tspan
     x="35.97"
     y="42.7"
     id="tspan50">м</tspan><tspan
     class="cls-17"
     x="59.42"
     y="42.7"
     id="tspan52">е</tspan><tspan
     class="cls-18"
     x="77.81"
     y="42.7"
     id="tspan54">т</tspan><tspan
     class="cls-19"
     x="92.44"
     y="42.7"
     id="tspan56">о</tspan><tspan
     class="cls-20"
     x="112.43"
     y="42.7"
     id="tspan58">ды</tspan></tspan></text>
  <rect
     class="cls-2"
     x="1048.87"
     y="875.87"
     width="252.23"
     height="111.37"
     rx="9"
     id="rect64" />
  <text
     class="cls-16"
     transform="translate(1078.87 920.65)"
     id="text78">Операции и<tspan
   class="cls-14"
   id="tspan76"><tspan
     x="35.97"
     y="42.7"
     id="tspan66">м</tspan><tspan
     class="cls-17"
     x="59.42"
     y="42.7"
     id="tspan68">е</tspan><tspan
     class="cls-18"
     x="77.81"
     y="42.7"
     id="tspan70">т</tspan><tspan
     class="cls-19"
     x="92.44"
     y="42.7"
     id="tspan72">о</tspan><tspan
     class="cls-20"
     x="112.43"
     y="42.7"
     id="tspan74">ды</tspan></tspan></text>
  <rect
     class="cls-2"
     x="392.09"
     y="681.13"
     width="289.04"
     height="68.68"
     rx="9"
     id="rect80" />
  <text
     class="cls-21"
     transform="translate(422.09 725.91)"
     id="text100">Ч<tspan
   class="cls-18"
   x="21.81"
   y="0"
   id="tspan82">т</tspan><tspan
   class="cls-14"
   x="36.43"
   y="0"
   id="tspan84">о </tspan><tspan
   class="cls-22"
   x="64.93"
   y="0"
   id="tspan86">э</tspan><tspan
   class="cls-18"
   x="81.87"
   y="0"
   id="tspan88">т</tspan><tspan
   class="cls-14"
   x="96.49"
   y="0"
   id="tspan90">о </tspan><tspan
   class="cls-23"
   x="124.99"
   y="0"
   id="tspan92">т</tspan><tspan
   class="cls-20"
   x="139.83"
   y="0"
   id="tspan94">а</tspan><tspan
   class="cls-24"
   x="157.69"
   y="0"
   id="tspan96">к</tspan><tspan
   class="cls-20"
   x="175.23"
   y="0"
   id="tspan98">ое?</tspan></text>
  <rect
     class="cls-2"
     x="1048.86"
     y="777.3"
     width="289.04"
     height="68.68"
     rx="9"
     id="rect102" />
  <text
     class="cls-21"
     transform="translate(1078.86 822.08)"
     id="text122">Ч<tspan
   class="cls-18"
   x="21.81"
   y="0"
   id="tspan104">т</tspan><tspan
   class="cls-14"
   x="36.43"
   y="0"
   id="tspan106">о </tspan><tspan
   class="cls-22"
   x="64.93"
   y="0"
   id="tspan108">э</tspan><tspan
   class="cls-18"
   x="81.87"
   y="0"
   id="tspan110">т</tspan><tspan
   class="cls-14"
   x="96.49"
   y="0"
   id="tspan112">о </tspan><tspan
   class="cls-23"
   x="124.99"
   y="0"
   id="tspan114">т</tspan><tspan
   class="cls-20"
   x="139.83"
   y="0"
   id="tspan116">а</tspan><tspan
   class="cls-24"
   x="157.69"
   y="0"
   id="tspan118">к</tspan><tspan
   class="cls-20"
   x="175.23"
   y="0"
   id="tspan120">ое?</tspan></text>
  <rect
     class="cls-2"
     x="1049.52"
     y="1017.78"
     width="209.53"
     height="68.68"
     rx="9"
     id="rect124" />
  <text
     class="cls-25"
     transform="translate(1079.52 1062.56)"
     id="text132">F<tspan
   class="cls-26"
   x="17.11"
   y="0"
   id="tspan126">r</tspan><tspan
   class="cls-27"
   x="29.11"
   y="0"
   id="tspan128">oz</tspan><tspan
   class="cls-20"
   x="64.79"
   y="0"
   id="tspan130">enset</tspan></text>
  <rect
     class="cls-2"
     x="661.7"
     y="71.13"
     width="251.9"
     height="65.53"
     rx="9"
     id="rect134" />
  <text
     class="cls-28"
     transform="translate(691.7 113.49) scale(0.91 1)"
     id="text156"><tspan
       class="cls-29"
       id="tspan136">Ч</tspan><tspan
       class="cls-30"
       x="20.03"
       y="0"
       id="tspan138">т</tspan><tspan
       class="cls-31"
       x="33.47"
       y="0"
       id="tspan140">о </tspan><tspan
       class="cls-32"
       x="59.64"
       y="0"
       id="tspan142">э</tspan><tspan
       x="75.2"
       y="0"
       id="tspan144">т</tspan><tspan
       class="cls-33"
       x="88.63"
       y="0"
       id="tspan146">о </tspan><tspan
       class="cls-34"
       x="114.81"
       y="0"
       id="tspan148">т</tspan><tspan
       class="cls-33"
       x="128.44"
       y="0"
       id="tspan150">а</tspan><tspan
       class="cls-35"
       x="144.85"
       y="0"
       id="tspan152">к</tspan><tspan
       class="cls-33"
       x="160.96"
       y="0"
       id="tspan154">ое?</tspan></text>
  <rect
     class="cls-2"
     x="720.88"
     y="332.09"
     width="251.9"
     height="65.53"
     rx="9"
     id="rect158" />
  <text
     class="cls-28"
     transform="translate(750.88 374.45) scale(0.91 1)"
     id="text180"><tspan
       class="cls-29"
       id="tspan160">Ч</tspan><tspan
       class="cls-30"
       x="20.03"
       y="0"
       id="tspan162">т</tspan><tspan
       class="cls-31"
       x="33.47"
       y="0"
       id="tspan164">о </tspan><tspan
       class="cls-32"
       x="59.64"
       y="0"
       id="tspan166">э</tspan><tspan
       x="75.2"
       y="0"
       id="tspan168">т</tspan><tspan
       class="cls-33"
       x="88.63"
       y="0"
       id="tspan170">о </tspan><tspan
       class="cls-34"
       x="114.81"
       y="0"
       id="tspan172">т</tspan><tspan
       class="cls-33"
       x="128.44"
       y="0"
       id="tspan174">а</tspan><tspan
       class="cls-35"
       x="144.85"
       y="0"
       id="tspan176">к</tspan><tspan
       class="cls-33"
       x="160.96"
       y="0"
       id="tspan178">ое?</tspan></text>
  <rect
     class="cls-2"
     x="1219.41"
     y="94.73"
     width="251.9"
     height="65.53"
     rx="9"
     id="rect182" />
  <text
     class="cls-28"
     transform="translate(1249.41 137.09) scale(0.91 1)"
     id="text204"><tspan
       class="cls-29"
       id="tspan184">Ч</tspan><tspan
       class="cls-30"
       x="20.03"
       y="0"
       id="tspan186">т</tspan><tspan
       class="cls-31"
       x="33.47"
       y="0"
       id="tspan188">о </tspan><tspan
       class="cls-32"
       x="59.64"
       y="0"
       id="tspan190">э</tspan><tspan
       x="75.2"
       y="0"
       id="tspan192">т</tspan><tspan
       class="cls-33"
       x="88.63"
       y="0"
       id="tspan194">о </tspan><tspan
       class="cls-34"
       x="114.81"
       y="0"
       id="tspan196">т</tspan><tspan
       class="cls-33"
       x="128.44"
       y="0"
       id="tspan198">а</tspan><tspan
       class="cls-35"
       x="144.85"
       y="0"
       id="tspan200">к</tspan><tspan
       class="cls-33"
       x="160.96"
       y="0"
       id="tspan202">ое?</tspan></text>
  <rect
     class="cls-2"
     x="1249.92"
     y="436.35"
     width="251.9"
     height="65.53"
     rx="9"
     id="rect206" />
  <text
     class="cls-28"
     transform="translate(1279.92 478.7) scale(0.91 1)"
     id="text228"><tspan
       class="cls-29"
       id="tspan208">Ч</tspan><tspan
       class="cls-30"
       x="20.03"
       y="0"
       id="tspan210">т</tspan><tspan
       class="cls-31"
       x="33.47"
       y="0"
       id="tspan212">о </tspan><tspan
       class="cls-32"
       x="59.64"
       y="0"
       id="tspan214">э</tspan><tspan
       x="75.2"
       y="0"
       id="tspan216">т</tspan><tspan
       class="cls-33"
       x="88.63"
       y="0"
       id="tspan218">о </tspan><tspan
       class="cls-34"
       x="114.81"
       y="0"
       id="tspan220">т</tspan><tspan
       class="cls-33"
       x="128.44"
       y="0"
       id="tspan222">а</tspan><tspan
       class="cls-35"
       x="144.85"
       y="0"
       id="tspan224">к</tspan><tspan
       class="cls-33"
       x="160.96"
       y="0"
       id="tspan226">ое?</tspan></text>
  <rect
     class="cls-2"
     x="1245.9"
     y="528.85"
     width="327.19"
     height="65.53"
     rx="9"
     id="rect230" />
  <text
     class="cls-36"
     transform="translate(1275.9 571.21) scale(0.91 1)"
     id="text248">О<tspan
   class="cls-37"
   x="23.6"
   y="0"
   id="tspan232">т</tspan><tspan
   class="cls-33"
   x="37.22"
   y="0"
   id="tspan234">л</tspan><tspan
   class="cls-38"
   x="54.45"
   y="0"
   id="tspan236">и</tspan><tspan
   class="cls-33"
   x="72.85"
   y="0"
   id="tspan238">чие </tspan><tspan
   class="cls-32"
   x="133.7"
   y="0"
   id="tspan240">о</tspan><tspan
   class="cls-31"
   x="152.04"
   y="0"
   id="tspan242">т спис</tspan><tspan
   class="cls-35"
   x="241.39"
   y="0"
   id="tspan244">к</tspan><tspan
   class="cls-33"
   x="257.5"
   y="0"
   id="tspan246">ов</tspan></text>
  <rect
     class="cls-2"
     x="464.12"
     y="789.15"
     width="218.59"
     height="111.37"
     rx="9"
     id="rect250" />
  <text
     class="cls-39"
     transform="translate(501.48 833.93)"
     id="text254">Базовые <tspan
   x="-7.36"
   y="42.7"
   id="tspan252">операции</tspan></text>
  <rect
     class="cls-2"
     x="458.42"
     y="934.21"
     width="223.11"
     height="111.37"
     rx="9"
     id="rect256" />
  <text
     class="cls-16"
     transform="translate(488.42 978.99)"
     id="text272">М<tspan
   class="cls-40"
   x="29.32"
   y="0"
   id="tspan258">е</tspan><tspan
   class="cls-18"
   x="47.71"
   y="0"
   id="tspan260">т</tspan><tspan
   class="cls-27"
   x="62.34"
   y="0"
   id="tspan262">о</tspan><tspan
   x="82.33"
   y="0"
   id="tspan264">ды и </tspan><tspan
   class="cls-41"
   id="tspan270"><tspan
     x="11.9"
     y="42.7"
     id="tspan266">ф</tspan><tspan
     class="cls-14"
     x="34.82"
     y="42.7"
     id="tspan268">ункции</tspan></tspan></text>
  <rect
     class="cls-2"
     x="661.18"
     y="158.39"
     width="200.33"
     height="97.53"
     rx="9"
     id="rect274" />
  <text
     class="cls-42"
     transform="translate(691.18 198.1) scale(1.04 1)"
     id="text292"><tspan
       class="cls-43"
       id="tspan276">М</tspan><tspan
       class="cls-44"
       x="24.33"
       y="0"
       id="tspan278">е</tspan><tspan
       x="39.59"
       y="0"
       id="tspan280">т</tspan><tspan
       class="cls-45"
       x="51.73"
       y="0"
       id="tspan282">о</tspan><tspan
       class="cls-43"
       x="68.32"
       y="0"
       id="tspan284">ды и </tspan><tspan
       class="cls-46"
       id="tspan290"><tspan
         x="9.88"
         y="35.43"
         id="tspan286">ф</tspan><tspan
         class="cls-43"
         x="28.89"
         y="35.43"
         id="tspan288">ункции</tspan></tspan></text>
  <rect
     class="cls-2"
     x="1269.53"
     y="190.19"
     width="200.33"
     height="97.53"
     rx="9"
     id="rect294" />
  <text
     class="cls-42"
     transform="translate(1299.53 229.9) scale(1.04 1)"
     id="text312"><tspan
       class="cls-43"
       id="tspan296">М</tspan><tspan
       class="cls-44"
       x="24.33"
       y="0"
       id="tspan298">е</tspan><tspan
       x="39.59"
       y="0"
       id="tspan300">т</tspan><tspan
       class="cls-45"
       x="51.73"
       y="0"
       id="tspan302">о</tspan><tspan
       class="cls-43"
       x="68.32"
       y="0"
       id="tspan304">ды и </tspan><tspan
       class="cls-46"
       id="tspan310"><tspan
         x="9.88"
         y="35.43"
         id="tspan306">ф</tspan><tspan
         class="cls-43"
         x="28.89"
         y="35.43"
         id="tspan308">ункции</tspan></tspan></text>
  <rect
     class="cls-2"
     x="1245.91"
     y="627.02"
     width="232.48"
     height="97.53"
     rx="9"
     id="rect314" />
  <text
     class="cls-47"
     transform="translate(1275.91 666.74) scale(1.04 1)"
     id="text322">Операции и <tspan
   class="cls-46"
   id="tspan320"><tspan
     x="25.39"
     y="35.43"
     id="tspan316">ф</tspan><tspan
     class="cls-43"
     x="44.41"
     y="35.43"
     id="tspan318">ункции</tspan></tspan></text>
  <path
     class="cls-48"
     d="M409.73,4.25Q407,5.71,404.44,7.08"
     id="path324" />
  <path
     class="cls-49"
     d="M393.66,13.49A88.25,88.25,0,0,0,371.21,34.4c-7.62,8.81-9.28,13.84-10.5,25-1.45,13.31,9.83,22.12,17.81,28.94"
     id="path326" />
  <path
     class="cls-48"
     d="M383.13,92.58c1.71,1.81,2.83,3.49,2.91,5.11"
     id="path328" />
  <circle
     class="cls-50"
     cx="371.89"
     cy="106.53"
     r="20.81"
     id="circle330" />
  <polyline
     class="cls-51"
     points="358.75 103.97 369.34 116.74 383.33 96.31"
     id="polyline332" />
  <circle
     class="cls-50"
     cx="659.22"
     cy="71.78"
     r="20.81"
     id="circle334" />
  <polyline
     class="cls-51"
     points="646.08 69.22 656.66 81.99 670.65 61.56"
     id="polyline336" />
  <circle
     class="cls-50"
     cx="659.85"
     cy="163"
     r="20.81"
     id="circle338" />
  <polyline
     class="cls-51"
     points="646.72 160.45 657.3 173.21 671.29 152.79"
     id="polyline340" />
  <circle
     class="cls-50"
     cx="962.95"
     cy="324.75"
     r="20.81"
     id="circle342" />
  <polyline
     class="cls-51"
     points="949.81 322.2 960.4 334.97 974.39 314.54"
     id="polyline344" />
  <circle
     class="cls-50"
     cx="1468.18"
     cy="91.85"
     r="20.81"
     id="circle346" />
  <polyline
     class="cls-51"
     points="1455.05 89.29 1465.63 102.06 1479.62 81.63"
     id="polyline348" />
  <circle
     class="cls-50"
     cx="1466.89"
     cy="187.11"
     r="20.81"
     id="circle350" />
  <polyline
     class="cls-51"
     points="1453.75 184.55 1464.33 197.32 1478.32 176.89"
     id="polyline352" />
  <circle
     class="cls-50"
     cx="962.95"
     cy="423.53"
     r="20.81"
     id="circle354" />
  <polyline
     class="cls-51"
     points="949.81 420.98 960.4 433.75 974.39 413.32"
     id="polyline356" />
  <circle
     class="cls-50"
     cx="962.95"
     cy="512.44"
     r="20.81"
     id="circle358" />
  <polyline
     class="cls-51"
     points="949.81 509.88 960.4 522.65 974.39 502.22"
     id="polyline360" />
  <circle
     class="cls-50"
     cx="1242.44"
     cy="435.51"
     r="20.81"
     id="circle362" />
  <polyline
     class="cls-51"
     points="1229.3 432.95 1239.89 445.72 1253.88 425.29"
     id="polyline364" />
  <circle
     class="cls-50"
     cx="1242.44"
     cy="528.01"
     r="20.81"
     id="circle366" />
  <polyline
     class="cls-51"
     points="1229.3 525.46 1239.89 538.23 1253.88 517.8"
     id="polyline368" />
  <circle
     class="cls-50"
     cx="1242.44"
     cy="625.7"
     r="20.81"
     id="circle370" />
  <polyline
     class="cls-51"
     points="1229.3 623.15 1239.89 635.92 1253.88 615.49"
     id="polyline372" />
  <circle
     class="cls-50"
     cx="371.89"
     cy="187.89"
     r="20.81"
     id="circle374" />
  <polyline
     class="cls-51"
     points="358.75 185.33 369.34 198.1 383.33 177.68"
     id="polyline376" />
  <circle
     class="cls-50"
     cx="371.89"
     cy="279.32"
     r="20.81"
     id="circle378" />
  <polyline
     class="cls-51"
     points="358.75 276.76 369.34 289.53 383.33 269.1"
     id="polyline380" />
  <circle
     class="cls-50"
     cx="371.89"
     cy="370.74"
     r="20.81"
     id="circle382" />
  <polyline
     class="cls-51"
     points="358.75 368.19 369.34 380.96 383.33 360.53"
     id="polyline384" />
  <circle
     class="cls-50"
     cx="678.54"
     cy="680.73"
     r="20.81"
     id="circle386" />
  <polyline
     class="cls-51"
     points="665.4 678.17 675.99 690.94 689.98 670.51"
     id="polyline388" />
  <circle
     class="cls-50"
     cx="1050.7"
     cy="776.9"
     r="20.81"
     id="circle390" />
  <polyline
     class="cls-51"
     points="1037.56 774.35 1048.14 787.11 1062.13 766.69"
     id="polyline392" />
  <circle
     class="cls-50"
     cx="1050.7"
     cy="875.58"
     r="20.81"
     id="circle394" />
  <polyline
     class="cls-51"
     points="1037.56 873.03 1048.14 885.79 1062.13 865.37"
     id="polyline396" />
  <circle
     class="cls-50"
     cx="1050.7"
     cy="1012.8"
     r="20.81"
     id="circle398" />
  <polyline
     class="cls-51"
     points="1037.56 1010.25 1048.14 1023.02 1062.13 1002.59"
     id="polyline400" />
  <circle
     class="cls-50"
     cx="678.54"
     cy="789.14"
     r="20.81"
     id="circle402" />
  <polyline
     class="cls-51"
     points="665.4 786.58 675.99 799.35 689.98 778.92"
     id="polyline404" />
  <circle
     class="cls-50"
     cx="678.54"
     cy="934.2"
     r="20.81"
     id="circle406" />
  <polyline
     class="cls-51"
     points="665.4 931.65 675.99 944.41 689.98 923.99"
     id="polyline408" />
  <path
     class="cls-48"
     d="M567.87,4.25A58.18,58.18,0,0,0,565,9.52"
     id="path410" />
  <path
     class="cls-52"
     d="M560.4,20.53c-7.41,20.76-14.77,59.66,7.47,106.8,47,99.69,79.38,137.06,97.5,197.06,20.29,67.16,14.55,137.51-30,221.17-38.22,71.78-19.11,48.12-57.06,114"
     id="path412" />
  <path
     class="cls-48"
     d="M575.32,664.7l-3,5.19"
     id="path414" />
  <path
     class="cls-48"
     d="M746,4.25q2,2.38,3.79,4.65"
     id="path416" />
  <path
     class="cls-53"
     d="M756.68,19.28c9.43,17.51,3.3,28.51-11.3,35.94"
     id="path418" />
  <path
     class="cls-48"
     d="M739.71,57.77q-2.7,1.06-5.65,2"
     id="path420" />
  <path
     class="cls-48"
     d="M914.83,7.08s1.49,1.57,4,4.47"
     id="path422" />
  <path
     class="cls-54"
     d="M926.22,20.48c18.4,23.18,52.13,72.88,47.08,120.37C966.26,207,896.8,267.68,873,294.24"
     id="path424" />
  <path
     class="cls-48"
     d="M869.2,298.65a31.23,31.23,0,0,0-3.39,4.93"
     id="path426" />
  <path
     class="cls-48"
     d="M1103.56.5s-1.87,1.11-5,3.27"
     id="path428" />
  <path
     class="cls-55"
     d="M1088.9,10.87c-22.71,17.85-63.63,58-62,114.24,2.5,84.25,71.3,108.16,72.85,182.22,1.71,81.26-49.54,147-32.49,242,12.85,71.58,107.86,118.28,98,172.83"
     id="path430" />
  <path
     class="cls-48"
     d="M1163.88,728a48.87,48.87,0,0,1-2.15,5.59"
     id="path432" />
  <path
     class="cls-48"
     d="M1293,.5s-2.23.48-5.8,1.53"
     id="path434" />
  <path
     class="cls-56"
     d="M1275.52,6.07c-14.7,5.85-33.86,16.69-37.46,34.2-3.9,19,2.45,30.85,8.73,37.59"
     id="path436" />
  <path
     class="cls-48"
     d="M1251.38,82a28,28,0,0,0,5.07,3.19"
     id="path438" />
  <path
     class="cls-57"
     d="M1474,.5s60.51,42.52,71.49,112.16c10.72,68,6.16,183.57-28.6,212.09-59.56,48.89-295.69,7.23-327.06,57.14-27,42.92,20.68,58.18,20.68,58.18"
     id="path440" />
  <path
     style="opacity:0;stroke-width:0.896032;fill-opacity:1;stroke:#ffffff"
     d="m 545.46249,104.94861 -169.7279,0.44778 0.34082,54.4809 169.21668,-0.44778 z"
     id="path657"
     sodipodi:nodetypes="ccccc" />
  <path
     style="opacity:0;fill-opacity:1;stroke:#ffffff;stroke-width:1.06707"
     d="m 907.09915,76.56847 -241.46437,0.446381 0.48487,54.310629 240.73708,-0.44638 z"
     id="path657-7"
     sodipodi:nodetypes="ccccc" />
  <path
     style="opacity:0;fill-opacity:1;stroke:#ffffff;stroke-width:1.44701"
     d="m 619.19123,374.56296 -242.67635,0.81675 0.48732,99.37206 241.94539,-0.81673 z"
     id="path4057"
     sodipodi:nodetypes="ccccc" />
  <path
     style="opacity:0;fill-opacity:1;stroke:#ffffff;stroke-width:0.762797"
     d="m 509.32773,190.95992 -131.09729,0.42014 0.26325,51.11815 130.70242,-0.42014 z"
     id="path657-8"
     sodipodi:nodetypes="ccccc" />
  <path
     style="opacity:0;fill-opacity:1;stroke:#ffffff;stroke-width:0.967447"
     d="m 563.84788,277.90519 -187.77992,0.47182 0.37707,57.40592 187.21432,-0.47182 z"
     id="path657-8-8"
     sodipodi:nodetypes="ccccc" />
  <path
     style="opacity:0;fill-opacity:1;stroke:#ffffff"
     d="m 667.11174,166.59994 0.71196,79.74015 182.97516,1.42393 v -82.58801 z"
     id="path5518" />
  <path
     style="opacity:0;fill-opacity:1;stroke:#ffffff"
     d="m 399.41268,687.04678 -0.71196,57.66921 h 272.68281 v -57.66921 z"
     id="path5520" />
  <path
     style="opacity:0;fill-opacity:1;stroke:#ffffff"
     d="m 469.89728,795.97751 2.13589,97.53928 205.04609,-0.71196 -1.42393,-93.97946 z"
     id="path5522" />
  <path
     style="opacity:0;fill-opacity:1;stroke:#ffffff"
     d="m 463.48959,941.21848 v 97.53932 l 210.74181,-0.712 4.27179,-96.82732 z"
     id="path5524" />
  <path
     style="opacity:0;fill-opacity:1;stroke:#ffffff"
     d="m 727.62881,337.47168 0.71197,53.39742 h 233.52471 l -0.71197,-50.54956 z"
     id="path5526" />
  <path
     style="opacity:0;fill-opacity:1;stroke:#ffffff"
     d="m 833.71168,427.17934 0.71197,50.54956 h 130.2897 v -50.54956 z"
     id="path5528" />
  <path
     style="opacity:0;fill-opacity:1;stroke:#ffffff"
     d="m 818.76041,519.73487 -0.71197,56.95724 146.66491,1.42393 0.71196,-57.66921 z"
     id="path5539" />
</svg>
